<?xml version="1.0" encoding="UTF-8" standalone="no"?>
<!-- Created with Inkscape (http://www.inkscape.org/) -->

<svg
   width="210mm"
   height="297mm"
   viewBox="0 0 210 297"
   version="1.1"
   id="svg1"
   inkscape:version="1.3.2 (091e20e, 2023-11-25, custom)"
   sodipodi:docname="LandAndSea.svg"
   xmlns:inkscape="http://www.inkscape.org/namespaces/inkscape"
   xmlns:sodipodi="http://sodipodi.sourceforge.net/DTD/sodipodi-0.dtd"
   xmlns="http://www.w3.org/2000/svg"
   xmlns:svg="http://www.w3.org/2000/svg">
  <sodipodi:namedview
     id="namedview1"
     pagecolor="#505050"
     bordercolor="#eeeeee"
     borderopacity="1"
     inkscape:showpageshadow="0"
     inkscape:pageopacity="0"
     inkscape:pagecheckerboard="0"
     inkscape:deskcolor="#505050"
     inkscape:document-units="mm"
     inkscape:zoom="1.0841681"
     inkscape:cx="385.54908"
     inkscape:cy="502.2284"
     inkscape:window-width="2560"
     inkscape:window-height="1494"
     inkscape:window-x="-11"
     inkscape:window-y="-11"
     inkscape:window-maximized="1"
     inkscape:current-layer="layer1" />
  <defs
     id="defs1" />
  <g
     inkscape:label="Layer 1"
     inkscape:groupmode="layer"
     id="layer1">
    <path
       id="Ocean"
       style="opacity:1;fill:#ececec;stroke:#000000;stroke-width:0.3;stroke-linecap:round;stroke-linejoin:round;stroke-dasharray:none"
       d="M 28.674219 61.087744 C 28.658347 61.087744 28.645797 61.100295 28.645797 61.116166 L 28.645797 196.69445 C 28.645797 196.71033 28.658347 196.72339 28.674219 196.72339 L 164.25251 196.72339 C 164.26838 196.72339 164.28093 196.71033 164.28093 196.69445 L 164.28093 61.116166 C 164.28093 61.100295 164.26838 61.087744 164.25251 61.087744 L 28.674219 61.087744 z M 139.70413 74.712752 L 141.00431 74.929793 L 142.37581 76.085278 L 145.11931 76.085278 L 144.90278 78.539909 L 144.54208 79.117651 L 144.32556 81.572282 L 144.75861 83.160815 L 145.33635 84.749349 L 146.85253 85.182397 L 148.36872 86.48206 L 148.80177 88.287118 L 149.23482 88.93669 L 148.65708 89.730957 L 150.46265 91.175313 L 150.60683 93.701774 L 151.11222 94.062992 L 151.18457 96.445793 L 149.66787 97.817285 L 150.02909 98.611552 L 148.87412 99.478166 L 149.52369 100.12774 L 148.58525 100.20009 L 147.14089 100.84966 L 145.11931 104.09907 L 146.34662 105.68761 L 145.48053 106.62605 L 146.05827 107.70919 L 145.04748 107.70919 L 144.18086 106.6984 L 141.94276 107.20328 L 139.84883 109.4419 L 139.84883 110.52504 L 141.07614 113.70159 L 141.14849 118.46667 L 140.28239 119.40563 L 140.23692 119.40046 L 140.35422 120.9213 L 139.92118 121.46287 L 138.62151 122.07679 L 137.53837 124.35107 L 136.78028 125.61455 L 136.56376 129.94659 L 138.29647 132.07618 L 138.83804 133.73706 L 137.89959 134.0621 L 136.16637 134.5675 L 134.65018 135.83099 L 134.65018 138.61066 L 133.20634 139.65763 L 131.79867 139.83798 L 130.42666 140.48807 L 130.53518 141.28182 L 128.94665 142.40113 L 127.75551 141.13764 L 128.26039 140.52372 L 128.44126 138.71918 L 128.69344 138.10527 L 128.26039 137.45518 L 131.11241 134.78402 L 129.8851 134.02593 L 128.58543 134.53132 L 128.47743 135.68629 L 127.21394 136.58908 L 127.17777 137.63604 L 127.61082 138.61066 L 126.81655 139.51293 L 126.09463 138.46597 L 124.32574 137.5637 L 123.60382 137.96057 L 122.19564 138.21327 L 121.72642 138.53831 L 121.58173 139.62145 L 121.32903 139.94598 L 121.29337 140.81259 L 121.72642 141.13764 L 121.72642 142.25643 L 119.45214 144.56689 L 118.51318 144.9281 L 117.75509 144.71158 L 117.75509 140.5599 L 119.1271 140.19919 L 118.0083 139.83798 L 117.21403 139.58528 L 115.76968 140.16302 L 115.76968 141.06529 L 114.93975 141.64303 L 113.82044 142.25643 L 112.41226 143.91731 L 112.41226 144.9281 L 111.94304 145.21698 L 110.82424 144.27802 L 106.41986 144.27802 L 106.02299 143.37574 L 105.30055 144.27802 L 104.07323 144.27802 L 103.78436 144.89193 L 102.34052 145.00045 L 101.36591 145.39733 L 100.24659 144.74775 L 100.64399 144.27802 L 102.30435 143.84497 L 103.13479 142.97887 L 100.75199 142.97887 L 100.49929 143.5561 L 99.957723 143.12305 L 99.416671 143.95349 L 98.405363 143.05122 L 98.405363 141.39034 L 97.070044 139.76563 L 96.889176 141.31799 L 95.661861 142.58148 L 95.661861 144.29817 L 99.127799 145.90272 L 99.127799 147.99665 L 97.899967 147.99665 L 94.939941 148.50205 L 92.773665 150.01823 L 92.701835 151.17372 L 90.896777 152.83408 L 89.741292 155.79411 L 87.71971 156.73307 L 84.687337 155.72228 L 83.604199 155.14454 L 83.604199 153.91722 L 80.571826 152.03982 L 80.355302 151.53442 L 80.644173 150.66781 L 80.644173 149.58518 L 81.43844 149.07979 L 80.71652 148.71857 L 80.644173 147.5636 L 83.89307 145.75854 L 83.89307 144.31419 L 83.460022 144.02583 L 80.860697 144.8201 L 79.200334 144.74775 L 77.6118 143.52044 L 74.579427 143.59227 L 71.980103 143.95349 L 71.835409 145.03663 L 70.536263 145.32498 L 69.164254 146.76934 L 67.070325 146.84168 L 66.8538 146.04742 L 64.687524 146.76934 L 63.604903 147.5636 L 62.161064 147.05821 L 62.088717 148.4297 L 59.489392 148.64622 L 58.622778 149.51284 L 57.611987 149.22397 L 58.839819 147.63543 L 57.829028 147.63543 L 57.034762 148.64622 L 55.735099 149.07979 L 55.735099 149.87406 L 54.435437 150.23476 L 53.713517 149.36814 L 52.91925 148.4297 L 52.269161 149.94589 L 52.485685 150.95668 L 53.207605 152.18451 L 51.619588 153.41182 L 50.969499 152.18451 L 50.175749 152.97826 L 50.175749 151.82329 L 49.092611 151.82329 L 47.43173 150.59598 L 45.843713 150.59598 L 45.771366 151.17372 L 43.316736 151.24555 L 42.377775 152.03982 L 41.439331 152.03982 L 40.500887 150.37893 L 39.923145 151.24555 L 38.478788 151.24555 L 38.118087 149.65701 L 38.478788 147.5636 L 39.056531 146.26394 L 40.500887 146.26394 L 41.222807 146.62464 L 43.244389 146.55281 L 45.554842 144.02583 L 48.009473 143.66462 L 49.236788 142.50913 L 51.763765 140.41572 L 54.36309 138.46597 L 55.879277 137.88822 L 55.879277 136.37255 L 57.756681 135.36176 L 59.489392 135.36176 L 60.64436 134.13393 L 62.521765 135.21707 L 62.521765 136.08368 L 64.326823 135.36176 L 71.835409 135.28942 L 74.074032 133.98975 L 79.9946 133.77323 L 82.088529 132.47357 L 83.171151 133.48436 L 82.304537 135.07289 L 83.217143 135.31577 L 83.676546 134.96437 L 84.578817 134.82019 L 85.625781 135.65063 L 86.09552 135.25324 L 86.420048 135.65063 L 87.178141 135.54211 L 87.250488 134.78402 L 88.333626 135.03672 L 89.235897 134.38663 L 89.344417 133.19549 L 90.607906 132.97896 L 90.64408 132.47357 L 89.380591 130.81269 L 89.777466 129.94659 L 90.932951 129.00763 L 90.968608 128.4304 L 91.54635 127.67231 L 92.19644 127.63614 L 92.954533 126.98605 L 93.567932 126.98605 L 96.383781 123.95367 L 96.383781 123.52063 L 97.322742 122.61784 L 97.394572 120.48825 L 96.997697 119.80251 L 96.383781 119.04441 L 97.250395 117.60006 L 98.080835 116.37274 L 99.560848 116.37274 L 100.71582 115.86735 L 103.09862 114.85656 L 103.67584 116.15622 L 102.77357 116.51692 L 102.3767 117.78092 L 101.32973 118.03362 L 100.21042 119.33277 L 100.96851 120.63243 L 100.64399 122.11296 L 101.76278 122.79871 L 103.42366 122.72636 L 104.93985 120.8133 L 106.70873 120.59626 L 108.00839 120.16321 L 108.29675 119.69399 L 110.17415 119.47746 L 111.25729 118.68319 L 112.882 118.64702 L 113.35122 118.10545 L 115.11959 116.80579 L 115.7335 116.66161 L 115.9862 116.04821 L 117.64708 114.42351 L 117.96231 113.29748 L 117.75509 112.76263 L 121.07633 110.81339 L 123.02608 110.74104 L 123.96453 108.93599 L 124.46992 107.34797 L 125.11949 104.89282 L 126.41916 103.52133 L 128.72961 100.63313 L 129.23501 97.889632 L 130.46284 96.012227 L 130.46284 92.257935 L 129.01848 91.680192 L 127.64699 92.257935 L 126.63568 90.669401 L 127.64699 90.091659 L 128.15238 90.597054 L 129.30735 90.235836 L 129.95693 88.142424 L 130.60701 87.131632 L 129.52388 86.120841 L 128.51309 84.026912 L 129.30735 83.088468 L 132.05085 82.583073 L 133.35052 80.27262 L 132.91747 78.756433 L 133.85591 77.962166 L 135.01088 78.322868 L 136.81646 77.889819 L 136.81646 80.27262 L 137.61072 81.499935 L 138.33264 81.499935 L 139.34343 79.767224 L 141.29267 81.211064 L 142.23111 81.138717 L 142.95355 78.322868 L 142.30346 77.817472 L 140.93197 78.756433 L 139.12691 78.756433 L 138.04377 79.406006 L 137.53837 78.828263 L 138.33264 76.301286 L 139.70413 74.712752 z " />
    <path
       id="Land"
       style="font-variation-settings:normal;fill:#f9f9f9;fill-opacity:1;stroke:#000000;stroke-width:0.1;stroke-linecap:round;stroke-linejoin:round;stroke-miterlimit:4;stroke-dasharray:none;stroke-dashoffset:0;stroke-opacity:1;stop-color:#000000"
       d="m 139.70426,74.712942 -1.37179,1.58851 -0.79422,2.52692 0.50555,0.57771 1.083,-0.64973 h 1.80492 l 1.37168,-0.93879 0.64999,0.5055 -0.72221,2.81577 -0.93857,0.0722 -1.94935,-1.44389 -1.01079,1.73276 h -0.722 l -0.79413,-1.22745 v -2.38268 l -1.80521,0.43328 -1.15523,-0.36107 -0.93857,0.79436 0.43333,1.51611 -1.29967,2.31046 -2.74358,0.50531 -0.79413,0.93858 1.01079,2.09383 1.08301,1.01081 -0.64999,1.01079 -0.64968,2.09383 -1.15523,0.36107 -0.50534,-0.5053 -1.01099,0.57752 1.01099,1.58852 1.37169,-0.57772 1.44411,0.57772 v 3.75436 l -1.22745,1.87718 -0.50535,2.743548 -2.31045,2.88819 -1.29967,1.37168 -0.64969,2.45489 -0.50554,1.58832 -0.93857,1.80517 -1.94935,0.0722 -3.32135,1.94939 0.20702,0.53467 -0.3153,1.12587 -1.66057,1.62463 -0.25272,0.61362 -0.61383,0.14443 -1.76885,1.29966 -0.46918,0.54142 -1.62441,0.0361 -1.08301,0.79416 -1.87744,0.21664 -0.28867,0.4694 -1.29957,0.43309 -1.76906,0.21664 -1.51613,1.91329 -1.66078,0.0722 -1.11896,-0.68584 0.32484,-1.48019 -0.75806,-1.29967 1.11906,-1.29946 1.04695,-0.25275 0.39696,-1.26355 0.90251,-0.36108 -0.57746,-1.29946 -2.38258,1.0108 -1.155226,0.50531 h -1.480172 l -0.830288,1.22744 -0.866345,1.4441 0.613624,0.75805 0.397164,0.68583 -0.07222,2.12994 -0.938566,0.90248 v 0.43328 l -2.816002,3.03242 h -0.613624 l -0.758062,0.64973 -0.649685,0.0361 -0.577767,0.75826 -0.03605,0.57751 -1.155227,0.93859 -0.396961,0.86638 1.263306,1.66073 -0.03605,0.50531 -1.26361,0.21664 -0.108077,1.19134 -0.90271,0.64974 -1.083008,-0.25276 -0.07222,0.75825 -0.758065,0.10832 -0.32474,-0.39717 -0.469385,0.39717 -1.046948,-0.83045 -0.902507,0.14441 -0.459633,0.35156 -0.912157,-0.24323 0.866549,-1.58832 -1.083008,-1.01081 -2.093896,1.29947 -5.920586,0.21664 -2.238236,1.29966 -7.508733,0.0722 -1.804911,0.72195 v -0.86638 l -1.877437,-1.08302 -1.155229,1.22745 h -1.732691 l -1.877233,1.01081 v 1.5161 l -1.516232,0.57771 -2.599137,1.9494 -2.52712,2.09382 -1.227247,1.15524 -2.454899,0.36107 -2.310457,2.52691 -2.021676,0.0722 -0.721903,-0.36106 h -1.444113 l -0.577563,1.29966 -0.361003,2.09382 0.361003,1.58852 h 1.443909 l 0.577767,-0.86657 0.938566,1.66073 h 0.938566 l 0.938668,-0.79416 2.454899,-0.0722 0.07212,-0.57771 h 1.588351 l 1.660774,1.22745 h 1.083008 v 1.15523 l 0.793921,-0.79416 0.649988,1.22745 1.588249,-1.22745 -0.721904,-1.22745 -0.216662,-1.0108 0.649987,-1.51631 0.794125,0.93859 0.721904,0.86658 1.29967,-0.36107 v -0.79417 l 1.29967,-0.43328 0.794226,-1.01081 h 1.010788 l -1.22745,1.58852 1.010787,0.28866 0.866345,-0.86637 2.599341,-0.21665 0.07222,-1.37167 1.444112,0.5053 1.082804,-0.79417 2.166016,-0.72194 0.216662,0.79416 2.093795,-0.0722 1.371891,-1.44409 1.299468,-0.28866 0.144441,-1.08302 2.599341,-0.36107 3.032361,-0.0722 1.588351,1.22745 1.660775,0.0722 2.599137,-0.79416 0.433224,0.28867 v 1.44408 l -3.249024,1.80497 0.07222,1.15523 0.721904,0.36107 -0.794125,0.5053 v 1.08302 l -0.288884,0.86638 0.216663,0.5055 3.032361,1.87719 v 1.22744 l 1.08311,0.57752 3.032361,1.0108 2.021574,-0.93859 1.155331,-2.96019 1.804912,-1.66055 0.07222,-1.15522 2.166014,-1.51632 2.960241,-0.5053 h 1.227451 v -2.09382 l -3.465483,-1.60459 v -1.71668 l 1.227248,-1.26356 0.1805,-1.55221 1.335729,1.62442 v 1.66075 l 1.010888,0.90247 0.541402,-0.83047 0.541604,0.4333 0.25272,-0.57752 h 2.38248 l -0.83029,0.86637 -1.66057,0.43309 -0.39716,0.4694 1.11917,0.64973 0.97472,-0.39698 1.44402,-0.10832 0.28868,-0.61383 h 1.22744 l 0.72221,-0.90248 0.39696,0.90248 h 4.40426 l 1.11917,0.93859 0.46918,-0.28866 v -1.0108 l 1.40795,-1.66074 1.11917,-0.61362 0.83028,-0.57772 v -0.90248 l 1.44401,-0.57752 0.79423,0.25275 1.11907,0.36087 -1.37189,0.36108 v 4.15154 l 0.75806,0.21664 0.93887,-0.36107 2.2741,-2.31047 v -1.11912 l -0.43303,-0.32477 0.0359,-0.86658 0.25273,-0.32476 0.14444,-1.08301 0.46938,-0.32497 1.40805,-0.25275 0.72191,-0.39698 1.76885,0.90247 0.72201,1.04692 0.79432,-0.90249 -0.43332,-0.97469 0.0362,-1.04691 1.26351,-0.90249 0.10838,-1.15523 1.29947,-0.5055 1.22745,0.75805 -2.85197,2.67154 0.43313,0.64973 -0.25252,0.61383 -0.18061,1.80497 -0.50523,0.61362 1.19108,1.26355 1.58855,-1.11913 -0.10828,-0.79415 1.37179,-0.64974 1.40785,-0.18053 1.44411,-1.04692 v -2.77986 l 1.51603,-1.26335 1.733,-0.5055 0.93856,-0.32497 -0.5416,-1.66054 -1.73269,-2.12993 0.21656,-4.33207 0.75806,-1.26336 1.08301,-2.27436 1.29967,-0.61382 0.43333,-0.54141 -0.11722,-1.52107 0.045,0.005 0.86614,-0.93859 -0.072,-4.76517 -1.22745,-3.17683 v -1.08302 l 2.0939,-2.23826 2.23823,-0.5053 0.86635,1.01081 h 1.01079 l -0.57767,-1.08303 0.86635,-0.93859 -1.22745,-1.58852 2.02177,-3.24905 1.44391,-0.64974 0.93857,-0.0722 -0.64968,-0.649728 1.15522,-0.86657 -0.3611,-0.79417 1.51633,-1.37188 -0.0722,-2.38247 -0.50544,-0.36108 -0.14424,-2.52691 -1.80522,-1.44409 0.57777,-0.79416 -0.43332,-0.64994 -0.43312,-1.80496 -1.51624,-1.29966 -1.51613,-0.43309 -0.57776,-1.58852 -0.43302,-1.58832 0.21646,-2.4549 0.361,-0.57752 0.21646,-2.45489 h -2.74358 l -1.37171,-1.15525 z" />
    <rect
       style="opacity:1;fill:#ffd42a;stroke:#1a1a1a;stroke-width:0.3;stroke-linecap:round;stroke-linejoin:round;stroke-dasharray:none"
       id="Army"
       width="3.9689782"
       height="3.9689782"
       x="118.37907"
       y="133.21962"
       ry="0.028648749" />
  </g>
</svg>
